<?xml version="1.0" encoding="UTF-8"?><svg id="Layer_1" xmlns="http://www.w3.org/2000/svg" viewBox="0 0 260.67 284.84"><defs><style>.cls-1{fill:#fc0;}.cls-2{fill:#0bbbef;}.cls-3{fill:#52ae32;}</style></defs><path class="cls-1" d="M76.44,235.85c-3.44,0-6.9-1.1-9.83-3.36-7.04-5.44-8.34-15.55-2.91-22.6L203.29,29.1c5.44-7.04,15.55-8.34,22.6-2.91,7.04,5.44,8.34,15.55,2.91,22.6L89.2,229.59c-3.17,4.11-7.94,6.26-12.76,6.26Z"/><path class="cls-2" d="M173.97,281.67c-6.63,0-12.84-4.13-15.18-10.73L71.52,24.66c-2.97-8.39,1.42-17.59,9.8-20.56,8.38-2.97,17.59,1.42,20.56,9.8l87.26,246.28c2.97,8.39-1.42,17.59-9.8,20.56-1.78,.63-3.59,.93-5.38,.93Z"/><path class="cls-3" d="M240.41,158.53H20.26c-8.9,0-16.11-7.21-16.11-16.11s7.21-16.11,16.11-16.11H240.41c8.9,0,16.11,7.21,16.11,16.11s-7.21,16.11-16.11,16.11Z"/></svg>